<mxfile host="app.diagrams.net" modified="2021-05-02T20:27:30.523Z" agent="5.0 (Windows NT 10.0; Win64; x64) AppleWebKit/537.36 (KHTML, like Gecko) Chrome/89.0.4389.128 Safari/537.36 OPR/75.0.3969.243" etag="FSdSFDJEdZPO1ShuvnZJ" version="14.5.1" type="github">
  <diagram name="Page-1" id="0783ab3e-0a74-02c8-0abd-f7b4e66b4bec">
    <mxGraphModel dx="1297" dy="1064" grid="1" gridSize="10" guides="1" tooltips="1" connect="1" arrows="1" fold="1" page="1" pageScale="1" pageWidth="850" pageHeight="1100" background="#ffffff" math="0" shadow="0">
      <root>
        <mxCell id="0" />
        <mxCell id="1" parent="0" />
        <mxCell id="1c1d494c118603dd-1" value="Pool" style="swimlane;html=1;childLayout=stackLayout;startSize=20;rounded=0;shadow=0;comic=0;labelBackgroundColor=none;strokeWidth=1;fontFamily=Verdana;fontSize=12;align=center;" parent="1" vertex="1">
          <mxGeometry x="40" y="20" width="1030" height="990" as="geometry" />
        </mxCell>
        <mxCell id="1c1d494c118603dd-2" value="Admin" style="swimlane;html=1;startSize=20;" parent="1c1d494c118603dd-1" vertex="1">
          <mxGeometry y="20" width="250" height="970" as="geometry" />
        </mxCell>
        <mxCell id="wo8n1h15b2m23Da7bi2s-3" value="Add/Remove company" style="rounded=1;whiteSpace=wrap;html=1;shadow=0;comic=0;labelBackgroundColor=none;strokeWidth=1;fontFamily=Verdana;fontSize=12;align=center;arcSize=50;" vertex="1" parent="1c1d494c118603dd-2">
          <mxGeometry x="75" y="465" width="115" height="40" as="geometry" />
        </mxCell>
        <mxCell id="1c1d494c118603dd-3" value="Human Sources" style="swimlane;html=1;startSize=20;" parent="1c1d494c118603dd-1" vertex="1">
          <mxGeometry x="250" y="20" width="380" height="970" as="geometry" />
        </mxCell>
        <mxCell id="feAVlpUrrlh7gay0loe1-191" value="See ccompany requests" style="rounded=1;whiteSpace=wrap;html=1;shadow=0;comic=0;labelBackgroundColor=none;strokeWidth=1;fontFamily=Verdana;fontSize=12;align=center;arcSize=50;" parent="1c1d494c118603dd-3" vertex="1">
          <mxGeometry x="140.00000000000003" y="820" width="100" height="30" as="geometry" />
        </mxCell>
        <mxCell id="wo8n1h15b2m23Da7bi2s-7" value="Arrange meeting between Copmany and candidate&lt;br&gt;" style="rounded=1;whiteSpace=wrap;html=1;shadow=0;comic=0;labelBackgroundColor=none;strokeWidth=1;fontFamily=Verdana;fontSize=12;align=center;arcSize=50;" vertex="1" parent="1c1d494c118603dd-3">
          <mxGeometry x="200" y="467" width="100" height="86" as="geometry" />
        </mxCell>
        <mxCell id="wo8n1h15b2m23Da7bi2s-16" value="Suggest Candidate to Company" style="rounded=1;whiteSpace=wrap;html=1;shadow=0;comic=0;labelBackgroundColor=none;strokeWidth=1;fontFamily=Verdana;fontSize=12;align=center;arcSize=50;" vertex="1" parent="1c1d494c118603dd-3">
          <mxGeometry x="140" y="627" width="100" height="50" as="geometry" />
        </mxCell>
        <mxCell id="1c1d494c118603dd-4" value="Applicant Company" style="swimlane;html=1;startSize=20;" parent="1c1d494c118603dd-1" vertex="1">
          <mxGeometry x="630" y="20" width="400" height="970" as="geometry" />
        </mxCell>
        <mxCell id="feAVlpUrrlh7gay0loe1-89" value="" style="ellipse;whiteSpace=wrap;html=1;rounded=0;shadow=0;comic=0;labelBackgroundColor=none;strokeWidth=1;fillColor=#000000;fontFamily=Verdana;fontSize=12;align=center;" parent="1c1d494c118603dd-4" vertex="1">
          <mxGeometry x="170" y="50" width="40" height="40" as="geometry" />
        </mxCell>
        <mxCell id="feAVlpUrrlh7gay0loe1-90" value="Login" style="rounded=1;whiteSpace=wrap;html=1;shadow=0;comic=0;labelBackgroundColor=none;strokeWidth=1;fontFamily=Verdana;fontSize=12;align=center;arcSize=50;" parent="1c1d494c118603dd-4" vertex="1">
          <mxGeometry x="220" y="187" width="100" height="30" as="geometry" />
        </mxCell>
        <mxCell id="feAVlpUrrlh7gay0loe1-92" value="" style="rhombus;whiteSpace=wrap;html=1;color=black;fillColor=#bac8d3;strokeColor=#23445d;" parent="1c1d494c118603dd-4" vertex="1">
          <mxGeometry x="237.5" y="250" width="65" height="64" as="geometry" />
        </mxCell>
        <mxCell id="feAVlpUrrlh7gay0loe1-93" value="&lt;span style=&quot;font-size: 24px&quot;&gt;[Fail]&lt;/span&gt;" style="edgeStyle=orthogonalEdgeStyle;rounded=0;orthogonalLoop=1;jettySize=auto;html=1;exitX=1;exitY=0.5;exitDx=0;exitDy=0;entryX=1;entryY=0.5;entryDx=0;entryDy=0;" parent="1c1d494c118603dd-4" source="feAVlpUrrlh7gay0loe1-92" target="feAVlpUrrlh7gay0loe1-90" edge="1">
          <mxGeometry x="-0.0076" relative="1" as="geometry">
            <mxPoint x="20" y="130" as="targetPoint" />
            <Array as="points">
              <mxPoint x="350" y="282" />
              <mxPoint x="350" y="205" />
            </Array>
            <mxPoint as="offset" />
          </mxGeometry>
        </mxCell>
        <mxCell id="feAVlpUrrlh7gay0loe1-94" value="" style="line;strokeWidth=11;fillColor=none;align=left;verticalAlign=middle;spacingTop=-1;spacingLeft=3;spacingRight=3;rotatable=0;labelPosition=right;points=[];portConstraint=eastwest;fontStyle=1" parent="1c1d494c118603dd-4" vertex="1">
          <mxGeometry x="90" y="400" width="210" height="20" as="geometry" />
        </mxCell>
        <mxCell id="feAVlpUrrlh7gay0loe1-95" style="edgeStyle=orthogonalEdgeStyle;rounded=0;orthogonalLoop=1;jettySize=auto;html=1;exitX=0.5;exitY=1;exitDx=0;exitDy=0;" parent="1c1d494c118603dd-4" source="feAVlpUrrlh7gay0loe1-90" edge="1">
          <mxGeometry relative="1" as="geometry">
            <mxPoint x="270" y="250" as="targetPoint" />
          </mxGeometry>
        </mxCell>
        <mxCell id="feAVlpUrrlh7gay0loe1-96" value="&lt;font style=&quot;font-size: 20px&quot;&gt;[Succeeded]&lt;/font&gt;" style="edgeStyle=orthogonalEdgeStyle;rounded=0;orthogonalLoop=1;jettySize=auto;html=1;exitX=0.5;exitY=1;exitDx=0;exitDy=0;" parent="1c1d494c118603dd-4" edge="1" source="feAVlpUrrlh7gay0loe1-92">
          <mxGeometry relative="1" as="geometry">
            <mxPoint x="260" y="413" as="targetPoint" />
            <mxPoint x="260" y="333" as="sourcePoint" />
            <Array as="points">
              <mxPoint x="270" y="403" />
              <mxPoint x="260" y="403" />
            </Array>
          </mxGeometry>
        </mxCell>
        <mxCell id="feAVlpUrrlh7gay0loe1-109" value="&lt;span style=&quot;font-size: 24px&quot;&gt;[Fail]&lt;/span&gt;" style="edgeStyle=orthogonalEdgeStyle;rounded=0;orthogonalLoop=1;jettySize=auto;html=1;exitX=1;exitY=0.5;exitDx=0;exitDy=0;entryX=1;entryY=0.5;entryDx=0;entryDy=0;" parent="1c1d494c118603dd-4" edge="1">
          <mxGeometry x="-0.0076" relative="1" as="geometry">
            <mxPoint x="157.5" y="515" as="targetPoint" />
            <Array as="points">
              <mxPoint x="187.5" y="592" />
              <mxPoint x="187.5" y="515" />
            </Array>
            <mxPoint as="offset" />
          </mxGeometry>
        </mxCell>
        <mxCell id="feAVlpUrrlh7gay0loe1-193" value="" style="endArrow=open;endFill=1;endSize=12;html=1;" parent="1c1d494c118603dd-4" edge="1">
          <mxGeometry width="160" relative="1" as="geometry">
            <mxPoint x="245.60000000000002" y="710" as="sourcePoint" />
            <mxPoint x="245.60000000000002" y="710" as="targetPoint" />
          </mxGeometry>
        </mxCell>
        <mxCell id="feAVlpUrrlh7gay0loe1-194" value="" style="endArrow=open;endFill=1;endSize=12;html=1;exitX=0.939;exitY=0.657;exitDx=0;exitDy=0;exitPerimeter=0;entryX=0.5;entryY=0;entryDx=0;entryDy=0;" parent="1c1d494c118603dd-4" edge="1" target="wo8n1h15b2m23Da7bi2s-19" source="feAVlpUrrlh7gay0loe1-94">
          <mxGeometry width="160" relative="1" as="geometry">
            <mxPoint x="258.1" y="410" as="sourcePoint" />
            <mxPoint x="281.9095238095239" y="710" as="targetPoint" />
          </mxGeometry>
        </mxCell>
        <mxCell id="wo8n1h15b2m23Da7bi2s-2" value="" style="endArrow=open;endFill=1;endSize=12;html=1;entryX=0;entryY=0.5;entryDx=0;entryDy=0;" edge="1" parent="1c1d494c118603dd-4" target="wo8n1h15b2m23Da7bi2s-20">
          <mxGeometry width="160" relative="1" as="geometry">
            <mxPoint x="203" y="410" as="sourcePoint" />
            <mxPoint x="203" y="640" as="targetPoint" />
            <Array as="points">
              <mxPoint x="203" y="655" />
            </Array>
          </mxGeometry>
        </mxCell>
        <mxCell id="wo8n1h15b2m23Da7bi2s-17" value="Advertise" style="rounded=1;whiteSpace=wrap;html=1;shadow=0;comic=0;labelBackgroundColor=none;strokeWidth=1;fontFamily=Verdana;fontSize=12;align=center;arcSize=50;" vertex="1" parent="1c1d494c118603dd-4">
          <mxGeometry x="60" y="810" width="100" height="50" as="geometry" />
        </mxCell>
        <mxCell id="wo8n1h15b2m23Da7bi2s-28" style="edgeStyle=orthogonalEdgeStyle;rounded=0;orthogonalLoop=1;jettySize=auto;html=1;exitX=1;exitY=0.5;exitDx=0;exitDy=0;entryX=0;entryY=0.5;entryDx=0;entryDy=0;" edge="1" parent="1c1d494c118603dd-4" source="wo8n1h15b2m23Da7bi2s-18" target="feAVlpUrrlh7gay0loe1-90">
          <mxGeometry relative="1" as="geometry" />
        </mxCell>
        <mxCell id="wo8n1h15b2m23Da7bi2s-18" value="Sign up" style="rounded=1;whiteSpace=wrap;html=1;shadow=0;comic=0;labelBackgroundColor=none;strokeWidth=1;fontFamily=Verdana;fontSize=12;align=center;arcSize=50;" vertex="1" parent="1c1d494c118603dd-4">
          <mxGeometry x="60" y="187" width="85" height="33" as="geometry" />
        </mxCell>
        <mxCell id="wo8n1h15b2m23Da7bi2s-19" value="Accept/Decline Suggested Candidates" style="rounded=1;whiteSpace=wrap;html=1;shadow=0;comic=0;labelBackgroundColor=none;strokeWidth=1;fontFamily=Verdana;fontSize=12;align=center;arcSize=50;" vertex="1" parent="1c1d494c118603dd-4">
          <mxGeometry x="237.5" y="720" width="100" height="50" as="geometry" />
        </mxCell>
        <mxCell id="wo8n1h15b2m23Da7bi2s-22" value="" style="line;strokeWidth=11;fillColor=none;align=left;verticalAlign=middle;spacingTop=-1;spacingLeft=3;spacingRight=3;rotatable=0;labelPosition=right;points=[];portConstraint=eastwest;fontStyle=1" vertex="1" parent="1c1d494c118603dd-4">
          <mxGeometry x="130" y="125" width="117.5" height="20" as="geometry" />
        </mxCell>
        <mxCell id="wo8n1h15b2m23Da7bi2s-29" value="" style="endArrow=open;endFill=1;endSize=12;html=1;entryX=0;entryY=0.5;entryDx=0;entryDy=0;" edge="1" parent="1c1d494c118603dd-4" target="wo8n1h15b2m23Da7bi2s-6">
          <mxGeometry width="160" relative="1" as="geometry">
            <mxPoint x="90" y="410" as="sourcePoint" />
            <mxPoint x="90" y="790" as="targetPoint" />
            <Array as="points">
              <mxPoint x="90" y="525" />
            </Array>
          </mxGeometry>
        </mxCell>
        <mxCell id="wo8n1h15b2m23Da7bi2s-30" value="" style="endArrow=open;endFill=1;endSize=12;html=1;entryX=0.75;entryY=0;entryDx=0;entryDy=0;exitX=0.218;exitY=0.729;exitDx=0;exitDy=0;exitPerimeter=0;" edge="1" parent="1c1d494c118603dd-4" source="feAVlpUrrlh7gay0loe1-94" target="wo8n1h15b2m23Da7bi2s-17">
          <mxGeometry width="160" relative="1" as="geometry">
            <mxPoint x="109.28999999999996" y="410" as="sourcePoint" />
            <mxPoint x="109.28999999999996" y="790" as="targetPoint" />
            <Array as="points">
              <mxPoint x="135" y="610" />
            </Array>
          </mxGeometry>
        </mxCell>
        <mxCell id="wo8n1h15b2m23Da7bi2s-38" value="" style="rhombus;whiteSpace=wrap;html=1;color=black;fillColor=#bac8d3;strokeColor=#23445d;" vertex="1" parent="1c1d494c118603dd-4">
          <mxGeometry x="20" y="620" width="65" height="64" as="geometry" />
        </mxCell>
        <mxCell id="wo8n1h15b2m23Da7bi2s-42" value="&lt;font style=&quot;font-size: 18px&quot;&gt;[Decline]&lt;/font&gt;" style="edgeStyle=orthogonalEdgeStyle;rounded=0;orthogonalLoop=1;jettySize=auto;html=1;exitX=0.5;exitY=1;exitDx=0;exitDy=0;entryX=0.5;entryY=0;entryDx=0;entryDy=0;" edge="1" parent="1c1d494c118603dd-4" source="wo8n1h15b2m23Da7bi2s-38" target="wo8n1h15b2m23Da7bi2s-17">
          <mxGeometry relative="1" as="geometry">
            <mxPoint x="53.00000000000023" y="760" as="targetPoint" />
          </mxGeometry>
        </mxCell>
        <mxCell id="wo8n1h15b2m23Da7bi2s-35" style="edgeStyle=orthogonalEdgeStyle;rounded=0;orthogonalLoop=1;jettySize=auto;html=1;entryX=0;entryY=0.5;entryDx=0;entryDy=0;" edge="1" parent="1c1d494c118603dd-1" source="feAVlpUrrlh7gay0loe1-191" target="wo8n1h15b2m23Da7bi2s-17">
          <mxGeometry relative="1" as="geometry" />
        </mxCell>
        <mxCell id="wo8n1h15b2m23Da7bi2s-39" style="edgeStyle=orthogonalEdgeStyle;rounded=0;orthogonalLoop=1;jettySize=auto;html=1;exitX=1;exitY=0.5;exitDx=0;exitDy=0;" edge="1" parent="1c1d494c118603dd-1" source="wo8n1h15b2m23Da7bi2s-16" target="wo8n1h15b2m23Da7bi2s-38">
          <mxGeometry relative="1" as="geometry" />
        </mxCell>
        <mxCell id="wo8n1h15b2m23Da7bi2s-41" value="&lt;font style=&quot;font-size: 18px&quot;&gt;[Accept]&lt;/font&gt;" style="edgeStyle=orthogonalEdgeStyle;rounded=0;orthogonalLoop=1;jettySize=auto;html=1;exitX=0.5;exitY=0;exitDx=0;exitDy=0;entryX=1;entryY=0.5;entryDx=0;entryDy=0;" edge="1" parent="1c1d494c118603dd-1" source="wo8n1h15b2m23Da7bi2s-38" target="wo8n1h15b2m23Da7bi2s-7">
          <mxGeometry relative="1" as="geometry">
            <mxPoint x="683" y="520" as="targetPoint" />
          </mxGeometry>
        </mxCell>
        <mxCell id="feAVlpUrrlh7gay0loe1-146" value="Candidate" style="swimlane;html=1;startSize=20;" parent="1" vertex="1">
          <mxGeometry x="1070" y="40" width="370" height="970" as="geometry" />
        </mxCell>
        <mxCell id="feAVlpUrrlh7gay0loe1-155" value="&lt;span style=&quot;font-size: 24px&quot;&gt;[Fail]&lt;/span&gt;" style="edgeStyle=orthogonalEdgeStyle;rounded=0;orthogonalLoop=1;jettySize=auto;html=1;exitX=1;exitY=0.5;exitDx=0;exitDy=0;entryX=1;entryY=0.5;entryDx=0;entryDy=0;" parent="feAVlpUrrlh7gay0loe1-146" edge="1">
          <mxGeometry x="-0.0076" relative="1" as="geometry">
            <mxPoint x="157.5" y="515" as="targetPoint" />
            <Array as="points">
              <mxPoint x="187.5" y="592" />
              <mxPoint x="187.5" y="515" />
            </Array>
            <mxPoint as="offset" />
          </mxGeometry>
        </mxCell>
        <mxCell id="wo8n1h15b2m23Da7bi2s-6" value="Rate candidate" style="rounded=1;whiteSpace=wrap;html=1;shadow=0;comic=0;labelBackgroundColor=none;strokeWidth=1;fontFamily=Verdana;fontSize=12;align=center;arcSize=50;" vertex="1" parent="feAVlpUrrlh7gay0loe1-146">
          <mxGeometry x="135" y="500" width="100" height="50" as="geometry" />
        </mxCell>
        <mxCell id="wo8n1h15b2m23Da7bi2s-20" value="See suggested candidates" style="rounded=1;whiteSpace=wrap;html=1;shadow=0;comic=0;labelBackgroundColor=none;strokeWidth=1;fontFamily=Verdana;fontSize=12;align=center;arcSize=50;" vertex="1" parent="feAVlpUrrlh7gay0loe1-146">
          <mxGeometry x="140" y="630" width="100" height="50" as="geometry" />
        </mxCell>
        <mxCell id="wo8n1h15b2m23Da7bi2s-25" style="edgeStyle=orthogonalEdgeStyle;rounded=0;orthogonalLoop=1;jettySize=auto;html=1;exitX=0.5;exitY=1;exitDx=0;exitDy=0;" edge="1" parent="1" source="feAVlpUrrlh7gay0loe1-89">
          <mxGeometry relative="1" as="geometry">
            <mxPoint x="859" y="170" as="targetPoint" />
          </mxGeometry>
        </mxCell>
        <mxCell id="wo8n1h15b2m23Da7bi2s-26" value="" style="endArrow=classic;html=1;entryX=0.5;entryY=0;entryDx=0;entryDy=0;" edge="1" parent="1" target="wo8n1h15b2m23Da7bi2s-18">
          <mxGeometry width="50" height="50" relative="1" as="geometry">
            <mxPoint x="830" y="180" as="sourcePoint" />
            <mxPoint x="750" y="180" as="targetPoint" />
            <Array as="points">
              <mxPoint x="830" y="180" />
              <mxPoint x="773" y="180" />
            </Array>
          </mxGeometry>
        </mxCell>
        <mxCell id="wo8n1h15b2m23Da7bi2s-27" value="" style="endArrow=classic;html=1;entryX=0.5;entryY=0;entryDx=0;entryDy=0;" edge="1" parent="1" target="feAVlpUrrlh7gay0loe1-90">
          <mxGeometry width="50" height="50" relative="1" as="geometry">
            <mxPoint x="910" y="180" as="sourcePoint" />
            <mxPoint x="782.5" y="237" as="targetPoint" />
            <Array as="points">
              <mxPoint x="920" y="180" />
              <mxPoint x="940" y="180" />
            </Array>
          </mxGeometry>
        </mxCell>
      </root>
    </mxGraphModel>
  </diagram>
</mxfile>
